<?xml version="1.0" encoding="UTF-8"?>
<svg xmlns="http://www.w3.org/2000/svg" xmlns:xlink="http://www.w3.org/1999/xlink" width="16pt" height="16pt" viewBox="0 0 16 16" version="1.1">
<g id="surface3153506">
<path style=" stroke:none;fill-rule:nonzero;fill:rgb(100%,100%,100%);fill-opacity:1;" d="M 8 0.640625 C 6.546875 0.640625 5.308594 1.25 4.472656 2.222656 C 3.640625 3.195312 3.199219 4.503906 3.199219 5.921875 C 3.199219 7.335938 3.640625 8.644531 4.472656 9.617188 C 5.308594 10.589844 6.546875 11.199219 8 11.199219 C 9.449219 11.199219 10.6875 10.589844 11.519531 9.625 L 11.519531 11.199219 C 11.519531 12.03125 11.257812 12.722656 10.734375 13.230469 C 10.214844 13.734375 9.394531 14.078125 8.160156 14.078125 C 5.691406 14.078125 4.800781 12.777344 4.800781 11.519531 L 3.519531 11.519531 C 3.519531 13.460938 5.1875 15.359375 8.160156 15.359375 C 9.644531 15.359375 10.828125 14.917969 11.625 14.148438 C 12.421875 13.378906 12.800781 12.3125 12.800781 11.199219 L 12.800781 0.960938 L 11.519531 0.960938 L 11.519531 2.21875 C 10.6875 1.25 9.449219 0.640625 8 0.640625 Z M 8 1.921875 C 9.105469 1.921875 9.949219 2.347656 10.554688 3.054688 C 11.160156 3.761719 11.519531 4.773438 11.519531 5.921875 C 11.519531 7.066406 11.160156 8.078125 10.554688 8.785156 C 9.949219 9.492188 9.105469 9.921875 8 9.921875 C 6.894531 9.921875 6.050781 9.492188 5.445312 8.785156 C 4.839844 8.078125 4.480469 7.066406 4.480469 5.921875 C 4.480469 4.773438 4.839844 3.761719 5.445312 3.054688 C 6.050781 2.347656 6.894531 1.921875 8 1.921875 Z M 8 1.921875 "/>
</g>
</svg>
